# Blender v2.79 (sub 0) OBJ File: ''
# www.blender.org
mtllib cornell.mtl
o cornell
v -0.990000 0.000000 -1.040000
v 1.000000 0.000000 -1.040000
v 1.000000 1.990000 -1.040000
v -1.020000 1.990000 -1.040000
v -0.240000 1.940678 0.160000
v -0.240000 1.940678 -0.220000
v 0.230000 1.940678 -0.220000
v 0.230000 1.940678 0.160000
v 1.000000 0.000000 -1.040000
v 1.000000 -0.000000 0.990000
v 1.000000 1.990000 0.990000
v 1.000000 1.990000 -1.040000
v -1.010000 -0.000000 0.990000
v -0.990000 0.000000 -1.040000
v -1.020000 1.990000 -1.040000
v -1.020000 1.990000 0.990000
v -1.020000 1.990000 0.990000
v -1.020000 1.990000 -1.040000
v 1.000000 1.990000 -1.040000
v 1.000000 1.990000 0.990000
v -1.010000 -0.000000 0.990000
v 1.000000 -0.000000 0.990000
v 1.000000 0.000000 -1.040000
v -0.990000 0.000000 -1.040000
vn 0.0000 -1.0000 0.0000
vn -1.0000 0.0000 0.0000
vn 0.0000 -0.0000 1.0000
vn 0.0000 1.0000 0.0000
vn 0.9999 0.0100 0.0049
usemtl light.001
s 1
f 5//1 6//1 7//1 8//1
usemtl rightWall.001
f 9//2 10//2 11//2 12//2
usemtl backWall.001
f 1//3 2//3 3//3 4//3
usemtl floor.001
f 21//4 22//4 23//4 24//4
usemtl ceiling.001
f 17//1 18//1 19//1 20//1
usemtl leftWall.001
f 13//5 14//5 15//5 16//5
