# Blender v2.79 (sub 0) OBJ File: ''
# www.blender.org
mtllib cornell3_bars.mtl
o bars
v 0.517723 0.346166 -0.072645
v 0.508578 0.346166 -0.102864
v 0.493469 0.373508 -0.098292
v 0.502613 0.373508 -0.068073
v -0.029935 0.057788 0.060096
v -0.020790 0.057788 0.090315
v -0.014826 0.030445 0.055524
v -0.005681 0.030445 0.085743
v 0.654891 0.346166 0.380636
v 0.645746 0.346166 0.350417
v 0.630637 0.373508 0.354989
v 0.639781 0.373508 0.385208
v 0.107233 0.057788 0.513377
v 0.116378 0.057788 0.543596
v 0.122343 0.030445 0.508805
v 0.131487 0.030445 0.539024
v 0.609168 0.346166 0.229542
v 0.600024 0.346166 0.199323
v 0.584914 0.373508 0.203895
v 0.594059 0.373508 0.234114
v 0.061511 0.057788 0.362284
v 0.070655 0.057788 0.392502
v 0.076620 0.030445 0.357711
v 0.085764 0.030445 0.387930
v 0.563445 0.346166 0.078448
v 0.554301 0.346166 0.048230
v 0.539191 0.373508 0.052802
v 0.548336 0.373508 0.083021
v 0.015788 0.057788 0.211190
v 0.024932 0.057788 0.241409
v 0.030897 0.030445 0.206618
v 0.040042 0.030445 0.236836
v 0.666732 0.582956 0.270216
v 0.689506 0.582956 0.248349
v 0.678572 0.610298 0.236962
v 0.655799 0.610298 0.258829
v 0.299827 0.294578 -0.157487
v 0.277054 0.294578 -0.135620
v 0.310760 0.267236 -0.146100
v 0.287987 0.267236 -0.124233
v 0.325129 0.582956 0.598219
v 0.347902 0.582956 0.576352
v 0.336969 0.610298 0.564965
v 0.314195 0.610298 0.586832
v -0.041776 0.294578 0.170516
v -0.064550 0.294578 0.192383
v -0.030843 0.267236 0.181903
v -0.053616 0.267236 0.203769
v 0.438997 0.582956 0.488885
v 0.461770 0.582956 0.467018
v 0.450837 0.610298 0.455631
v 0.428063 0.610298 0.477498
v 0.072092 0.294578 0.061182
v 0.049318 0.294578 0.083048
v 0.083025 0.267236 0.072568
v 0.060252 0.267236 0.094435
v 0.552864 0.582956 0.379550
v 0.575638 0.582956 0.357683
v 0.564705 0.610298 0.346297
v 0.541931 0.610298 0.368164
v 0.185959 0.294578 -0.048153
v 0.163186 0.294578 -0.026286
v 0.196893 0.267236 -0.036766
v 0.174119 0.267236 -0.014899
vn 0.8289 0.5000 -0.2508
vn -0.4786 0.8660 0.1448
vn -0.8289 -0.5000 0.2508
vn 0.4786 -0.8660 -0.1448
vn -0.2896 0.0000 -0.9571
vn 0.2896 -0.0000 0.9571
vn 0.5998 0.5000 0.6247
vn -0.3463 0.8660 -0.3607
vn -0.5998 -0.5000 -0.6247
vn 0.3463 -0.8660 0.3607
vn 0.7213 0.0000 -0.6926
vn -0.7213 0.0000 0.6926
usemtl None
s 1
f 1//1 2//1 3//1 4//1
f 4//2 3//2 5//2 6//2
f 6//3 5//3 7//3 8//3
f 8//4 7//4 2//4 1//4
f 2//5 7//5 5//5 3//5
f 8//6 1//6 4//6 6//6
f 9//1 10//1 11//1 12//1
f 12//2 11//2 13//2 14//2
f 14//3 13//3 15//3 16//3
f 16//4 15//4 10//4 9//4
f 10//5 15//5 13//5 11//5
f 16//6 9//6 12//6 14//6
f 17//1 18//1 19//1 20//1
f 20//2 19//2 21//2 22//2
f 22//3 21//3 23//3 24//3
f 24//4 23//4 18//4 17//4
f 18//5 23//5 21//5 19//5
f 24//6 17//6 20//6 22//6
f 25//1 26//1 27//1 28//1
f 28//2 27//2 29//2 30//2
f 30//3 29//3 31//3 32//3
f 32//4 31//4 26//4 25//4
f 26//5 31//5 29//5 27//5
f 32//6 25//6 28//6 30//6
f 33//7 34//7 35//7 36//7
f 36//8 35//8 37//8 38//8
f 38//9 37//9 39//9 40//9
f 40//10 39//10 34//10 33//10
f 34//11 39//11 37//11 35//11
f 40//12 33//12 36//12 38//12
f 41//7 42//7 43//7 44//7
f 44//8 43//8 45//8 46//8
f 46//9 45//9 47//9 48//9
f 48//10 47//10 42//10 41//10
f 42//11 47//11 45//11 43//11
f 48//12 41//12 44//12 46//12
f 49//7 50//7 51//7 52//7
f 52//8 51//8 53//8 54//8
f 54//9 53//9 55//9 56//9
f 56//10 55//10 50//10 49//10
f 50//11 55//11 53//11 51//11
f 56//12 49//12 52//12 54//12
f 57//7 58//7 59//7 60//7
f 60//8 59//8 61//8 62//8
f 62//9 61//9 63//9 64//9
f 64//10 63//10 58//10 57//10
f 58//11 63//11 61//11 59//11
f 64//12 57//12 60//12 62//12
o cornell
v 0.530000 0.600000 0.750000
v 0.700000 0.600000 0.170000
v 0.130000 0.600000 0.000000
v -0.050000 0.600000 0.570000
v -0.050000 -0.000000 0.570000
v -0.050000 0.600000 0.570000
v 0.130000 0.600000 0.000000
v 0.130000 0.000000 0.000000
v 0.530000 -0.000000 0.750000
v 0.530000 0.600000 0.750000
v -0.050000 0.600000 0.570000
v -0.050000 -0.000000 0.570000
v 0.700000 -0.000000 0.170000
v 0.700000 0.600000 0.170000
v 0.280537 0.462161 0.786865
v 0.530000 -0.000000 0.750000
v 0.130000 0.000000 0.000000
v 0.130000 0.600000 0.000000
v 0.700000 0.600000 0.170000
v 0.700000 -0.000000 0.170000
v -1.010000 -0.000000 0.990000
v -0.990000 0.000000 -1.040000
v -1.020000 1.990000 -1.040000
v -1.020000 1.990000 0.990000
v -0.240000 1.980000 0.160000
v -0.240000 1.980000 -0.220000
v 0.230000 1.980000 -0.220000
v 0.230000 1.980000 0.160000
v -0.530000 1.200000 0.090000
v 0.040000 1.200000 -0.090000
v -0.140000 1.200000 -0.670000
v -0.710000 1.200000 -0.490000
v -0.530000 -0.000000 0.090000
v -0.530000 1.200000 0.090000
v -0.710000 1.200000 -0.490000
v -0.710000 0.000000 -0.490000
v -0.710000 0.000000 -0.490000
v -0.710000 1.200000 -0.490000
v -0.140000 1.200000 -0.670000
v -0.140000 0.000000 -0.670000
v -0.140000 0.000000 -0.670000
v -0.140000 1.200000 -0.670000
v 0.040000 1.200000 -0.090000
v 0.040000 0.000000 -0.090000
v 0.040000 0.000000 -0.090000
v 0.040000 1.200000 -0.090000
v -0.530000 1.200000 0.090000
v -0.530000 -0.000000 0.090000
v -1.010000 -0.000000 0.990000
v 1.000000 -0.000000 0.990000
v 1.000000 0.000000 -1.040000
v -0.990000 0.000000 -1.040000
v -0.990000 0.000000 -1.040000
v 1.000000 0.000000 -1.040000
v 1.000000 1.990000 -1.040000
v -1.020000 1.990000 -1.040000
v -1.020000 1.990000 0.990000
v -1.020000 1.990000 -1.040000
v 1.000000 1.990000 -1.040000
v 1.000000 1.990000 0.990000
v 1.000000 0.000000 -1.040000
v 1.000000 -0.000000 0.990000
v 1.000000 1.990000 0.990000
v 1.000000 1.990000 -1.040000
vn 0.0000 -1.0000 0.0000
vn 0.0000 1.0000 0.0000
vn -1.0000 0.0000 0.0000
vn 0.0000 -0.0000 1.0000
vn 0.9999 0.0100 0.0049
vn -0.9551 0.0000 0.2964
vn -0.3011 0.0000 -0.9536
vn 0.9551 0.0000 -0.2964
vn 0.3011 -0.0000 0.9536
o light
usemtl light.001
s 1
f 89//13 90//13 91//13 92//13
o floor
usemtl floor.001
f 113//14 114//14 115//14 116//14
o rightWall
usemtl rightWall.001
f 125//15 126//15 127//15 128//15
o backWall
vt 1.0000 1.0000
vt 0.0000 1.0000
vt 0.0000 0.0000
vt 1.0000 0.0000
# 4 texture coords
usemtl backWall.001
f 117/-4/16 118/-3/16 119/-2/16 120/-1/16
o leftWall
vt 1.0000 1.0000
vt 0.0000 1.0000
vt 0.0000 0.0000
vt 1.0000 0.0000
# 4 texture coords
usemtl leftWall.001
f 85/-4/17 86/-3/17 87/-2/17 88/-1/17
o ceiling
usemtl ceiling.001
f 121//13 122//13 123//13 124//13
o tallBox
usemtl tallBox.001
f 93//14 94//14 95//14 96//14
f 97//18 98//18 99//18 100//18
f 101//19 102//19 103//19 104//19
f 105//20 106//20 107//20 108//20
f 109//21 110//21 111//21 112//21
